<svg width="32" height="32" viewBox="0 0 32 32" fill="none" xmlns="http://www.w3.org/2000/svg">
<path d="M9.82003 17.4099C9.77623 18.2258 10.0563 19.026 10.5994 19.6365C11.1425 20.247 11.9046 20.6184 12.72 20.6699C13.5337 20.6158 14.2933 20.2433 14.8342 19.6331C15.3752 19.0229 15.6539 18.2242 15.61 17.4099C15.654 16.5946 15.3756 15.7947 14.8349 15.1829C14.2942 14.5711 13.5346 14.1965 12.72 14.1399C11.9037 14.194 11.1416 14.5675 10.5988 15.1796C10.0559 15.7917 9.77615 16.593 9.82003 17.4099ZM13.61 17.4099C13.61 18.0899 13.2 18.6699 12.72 18.6699C12.24 18.6699 11.82 18.0899 11.82 17.4099C11.82 16.7299 12.23 16.1399 12.72 16.1399C13.21 16.1399 13.61 16.7199 13.61 17.4099ZM19.28 14.1399C18.4655 14.1965 17.7059 14.5711 17.1652 15.1829C16.6245 15.7947 16.3461 16.5946 16.39 17.4099C16.3461 18.2242 16.6249 19.0229 17.1658 19.6331C17.7068 20.2433 18.4664 20.6158 19.28 20.6699C20.0955 20.6184 20.8576 20.247 21.4007 19.6365C21.9437 19.026 22.2238 18.2258 22.18 17.4099C22.2239 16.593 21.9441 15.7917 21.4013 15.1796C20.8585 14.5675 20.0963 14.194 19.28 14.1399ZM19.28 18.6699C18.8 18.6699 18.39 18.0899 18.39 17.4099C18.39 16.7299 18.8 16.1399 19.28 16.1399C19.76 16.1399 20.18 16.7199 20.18 17.4099C20.18 18.0999 19.77 18.6699 19.28 18.6699Z" fill="white"/>
<path d="M26.63 10.5299L26.56 10.4399V10.3399C24.8242 8.23171 22.4287 6.76976 19.76 6.18994C19.6307 6.15258 19.4952 6.1417 19.3616 6.15796C19.228 6.17421 19.0991 6.21727 18.9825 6.28455C18.866 6.35183 18.7642 6.44194 18.6833 6.54949C18.6024 6.65704 18.544 6.77981 18.5117 6.91045C18.4794 7.0411 18.4738 7.17692 18.4952 7.30979C18.5166 7.44265 18.5646 7.56983 18.6364 7.6837C18.7081 7.79756 18.8021 7.89578 18.9127 7.97246C19.0233 8.04913 19.1482 8.1027 19.28 8.12994C21.4868 8.60306 23.4741 9.79542 24.93 11.5199C26.2788 14.6155 26.9831 17.9533 27 21.3299C25.6073 22.6289 23.8727 23.5032 22 23.8499V23.3399C23.2328 22.8617 24.3885 22.2046 25.43 21.3899C25.6382 21.2242 25.772 20.9825 25.802 20.7181C25.8321 20.4536 25.7558 20.1881 25.59 19.9799C25.4243 19.7717 25.1826 19.6379 24.9182 19.6079C24.6537 19.5779 24.3882 19.6542 24.18 19.8199C21.8327 21.6 18.9443 22.5181 16 22.4199C13.0795 22.502 10.2185 21.5847 7.89003 19.8199C7.78694 19.7379 7.6687 19.6769 7.54205 19.6405C7.4154 19.6041 7.28282 19.5931 7.15189 19.6079C6.88747 19.6379 6.64579 19.7717 6.48003 19.9799C6.31427 20.1881 6.238 20.4536 6.26801 20.7181C6.29801 20.9825 6.43183 21.2242 6.64003 21.3899C7.67441 22.2044 8.82349 22.8615 10.05 23.3399V23.8499C8.1774 23.5032 6.44273 22.6289 5.05003 21.3299C5.07322 17.9519 5.78435 14.6141 7.14003 11.5199C8.59598 9.79542 10.5832 8.60306 12.79 8.12994C13.0384 8.05818 13.2493 7.89303 13.3785 7.66913C13.5077 7.44524 13.5453 7.18 13.4832 6.92906C13.4211 6.67812 13.2642 6.46097 13.0455 6.32316C12.8268 6.18536 12.5632 6.13761 12.31 6.18994C9.64139 6.76976 7.24589 8.23171 5.51003 10.3399C5.51003 10.3399 5.51003 10.4099 5.51003 10.4399L5.44003 10.5299C3.50003 14.5299 3.28003 18.1799 3.07003 21.6699C3.06098 21.8115 3.08216 21.9534 3.13216 22.0861C3.18216 22.2189 3.25984 22.3395 3.36003 22.4399C5.39245 24.5114 8.10668 25.7761 11 25.9999C11.2624 25.9988 11.5138 25.8947 11.7 25.7099C11.7945 25.6173 11.8697 25.5069 11.9212 25.385C11.9727 25.2631 11.9995 25.1322 12 24.9999V23.9999C14.6312 24.6155 17.3689 24.6155 20 23.9999V24.9999C20.0006 25.1322 20.0274 25.2631 20.0789 25.385C20.1304 25.5069 20.2055 25.6173 20.3 25.7099C20.4863 25.8947 20.7377 25.9988 21 25.9999C23.9218 25.8133 26.6746 24.565 28.74 22.4899C28.8402 22.3895 28.9179 22.2689 28.9679 22.1361C29.0179 22.0034 29.0391 21.8615 29.03 21.7199C28.79 18.1799 28.57 14.5699 26.63 10.5299Z" fill="white"/>
<path d="M23.4901 11.72C23.5507 11.6032 23.5877 11.4755 23.5989 11.3444C23.6101 11.2132 23.5954 11.0811 23.5554 10.9557C23.5155 10.8303 23.4511 10.714 23.3661 10.6135C23.2811 10.513 23.1771 10.4302 23.0601 10.37C20.8579 9.32035 18.4388 8.80636 16.0001 8.87001C13.5614 8.80636 11.1422 9.32035 8.94008 10.37C8.82303 10.4302 8.71902 10.513 8.63402 10.6135C8.54902 10.714 8.4847 10.8303 8.44475 10.9557C8.4048 11.0811 8.39001 11.2132 8.40122 11.3444C8.41243 11.4755 8.44942 11.6032 8.51008 11.72C8.63346 11.9547 8.84497 12.1307 9.09812 12.2095C9.35128 12.2883 9.62534 12.2633 9.86008 12.14C11.7793 11.2425 13.8823 10.8075 16.0001 10.87C18.1179 10.8075 20.2208 11.2425 22.1401 12.14C22.2815 12.2164 22.4393 12.2576 22.6001 12.26C22.7837 12.2604 22.9639 12.2102 23.1209 12.115C23.2779 12.0197 23.4056 11.8831 23.4901 11.72Z" fill="white"/>
</svg>
