<svg width="32" height="32" viewBox="0 0 32 32" fill="none" xmlns="http://www.w3.org/2000/svg">
<path d="M30 12.0001C30.001 10.5542 29.4535 9.16184 28.4679 8.10393C27.4824 7.04601 26.1322 6.40136 24.69 6.30007C18.92 6.00007 13.06 6.00007 7.32996 6.28007C4.50996 6.28007 1.99996 9.00007 1.99996 12.0001C1.70916 14.8995 1.70916 17.8207 1.99996 20.7201C1.99727 22.1259 2.55111 23.4756 3.54045 24.4743C4.52979 25.473 5.87421 26.0395 7.27996 26.0501C10.18 26.2101 13.0866 26.2901 16 26.2901C18.9133 26.2901 21.8033 26.2134 24.67 26.0601C26.0707 26.0576 27.4144 25.5048 28.4115 24.5209C29.4085 23.537 29.979 22.2007 30 20.8001C30.4095 17.881 30.4095 14.9191 30 12.0001ZM28 20.6301C27.995 20.6699 27.995 20.7102 28 20.7501C27.9973 21.1922 27.9075 21.6294 27.7356 22.0367C27.5637 22.444 27.3131 22.8134 26.9982 23.1237C26.6833 23.434 26.3102 23.679 25.9004 23.8449C25.4906 24.0107 25.052 24.094 24.61 24.0901C18.8539 24.3901 13.086 24.3901 7.32996 24.0901C6.88443 24.0862 6.44412 23.9938 6.03465 23.8182C5.62518 23.6426 5.25472 23.3873 4.94484 23.0672C4.63495 22.747 4.39183 22.3685 4.22961 21.9535C4.0674 21.5386 3.98933 21.0955 3.99996 20.6501C3.71454 17.834 3.71454 14.9962 3.99996 12.1801C4.00445 12.1435 4.00445 12.1066 3.99996 12.0701C3.99221 11.1314 4.33397 10.2235 4.95873 9.52295C5.58349 8.8224 6.44656 8.37937 7.37996 8.28007C10.24 8.15007 13.12 8.09007 16 8.09007C18.88 8.09007 21.76 8.15007 24.62 8.28007H24.67C26.38 8.28007 28 10.1201 28 12.0701C27.995 12.12 27.995 12.1702 28 12.2201C28.3915 15.003 28.3915 17.8271 28 20.6101V20.6301Z" fill="white"/>
<path d="M20.7899 15.5101L13.6499 11.8301C13.533 11.7697 13.4054 11.7329 13.2743 11.7218C13.1432 11.7107 13.0112 11.7256 12.8859 11.7655C12.7605 11.8054 12.6442 11.8697 12.5437 11.9545C12.4432 12.0394 12.3603 12.1432 12.2999 12.2601C12.2395 12.377 12.2027 12.5046 12.1916 12.6357C12.1805 12.7668 12.1954 12.8988 12.2353 13.0242C12.2752 13.1495 12.3395 13.2658 12.4243 13.3663C12.5092 13.4669 12.613 13.5497 12.7299 13.6101L18.1599 16.4001L14.1599 18.4701V16.4001C14.1599 16.1349 14.0546 15.8805 13.867 15.693C13.6795 15.5055 13.4251 15.4001 13.1599 15.4001C12.8947 15.4001 12.6403 15.5055 12.4528 15.693C12.2653 15.8805 12.1599 16.1349 12.1599 16.4001V20.1201C12.1599 20.3853 12.2653 20.6397 12.4528 20.8272C12.6403 21.0148 12.8947 21.1201 13.1599 21.1201C13.3198 21.1208 13.4776 21.083 13.6199 21.0101L20.7599 17.2901C20.923 17.2056 21.0596 17.0779 21.1549 16.9209C21.2501 16.7639 21.3003 16.5837 21.2999 16.4001C21.3032 16.2195 21.2575 16.0414 21.1677 15.8847C21.0779 15.728 20.9474 15.5986 20.7899 15.5101Z" fill="white"/>
</svg>
